<svg width="20" height="21" viewBox="0 0 20 21" fill="none" xmlns="http://www.w3.org/2000/svg">
<path d="M10.0003 10.7521H10.0087M13.3337 5.7521V4.08543C13.3337 3.6434 13.1581 3.21948 12.8455 2.90692C12.5329 2.59436 12.109 2.41876 11.667 2.41876H8.33366C7.89163 2.41876 7.46771 2.59436 7.15515 2.90692C6.84259 3.21948 6.66699 3.6434 6.66699 4.08543V5.7521M18.3337 11.5854C15.861 13.2179 12.9633 14.0882 10.0003 14.0882C7.03737 14.0882 4.13967 13.2179 1.66699 11.5854M3.33366 5.7521H16.667C17.5875 5.7521 18.3337 6.49829 18.3337 7.41876V15.7521C18.3337 16.6726 17.5875 17.4188 16.667 17.4188H3.33366C2.41318 17.4188 1.66699 16.6726 1.66699 15.7521V7.41876C1.66699 6.49829 2.41318 5.7521 3.33366 5.7521Z" stroke="#00ADFF" stroke-width="2" stroke-linecap="round" stroke-linejoin="round"/>
</svg>
