<svg width="24" height="25" viewBox="0 0 24 25" fill="none" xmlns="http://www.w3.org/2000/svg">
<path d="M17.5 6.75195H17.51M7 2.25195H17C19.7614 2.25195 22 4.49053 22 7.25195V17.252C22 20.0134 19.7614 22.252 17 22.252H7C4.23858 22.252 2 20.0134 2 17.252V7.25195C2 4.49053 4.23858 2.25195 7 2.25195ZM16 11.622C16.1234 12.4542 15.9813 13.3042 15.5938 14.051C15.2063 14.7978 14.5931 15.4034 13.8416 15.7816C13.0901 16.1599 12.2384 16.2916 11.4078 16.1579C10.5771 16.0242 9.80976 15.632 9.21484 15.0371C8.61992 14.4422 8.22773 13.6748 8.09407 12.8442C7.9604 12.0135 8.09207 11.1618 8.47033 10.4103C8.84859 9.65881 9.45419 9.04569 10.201 8.65819C10.9478 8.2707 11.7978 8.12854 12.63 8.25195C13.4789 8.37784 14.2649 8.77342 14.8717 9.38026C15.4785 9.9871 15.8741 10.773 16 11.622Z" stroke="white" stroke-width="2" stroke-linecap="round" stroke-linejoin="round"/>
</svg>
