<svg width="20" height="21" viewBox="0 0 20 21" fill="none" xmlns="http://www.w3.org/2000/svg">
<path d="M15.0001 18.2521C15.0001 16.484 14.2977 14.7883 13.0475 13.538C11.7972 12.2878 10.1015 11.5854 8.33341 11.5854M8.33341 11.5854C6.5653 11.5854 4.86961 12.2878 3.61937 13.538C2.36913 14.7883 1.66675 16.484 1.66675 18.2521M8.33341 11.5854C10.6346 11.5854 12.5001 9.71993 12.5001 7.41874C12.5001 5.11756 10.6346 3.25208 8.33341 3.25208C6.03223 3.25208 4.16675 5.11756 4.16675 7.41874C4.16675 9.71993 6.03223 11.5854 8.33341 11.5854ZM18.3334 17.4187C18.3334 14.6104 16.6667 12.0021 15.0001 10.7521C15.5479 10.341 15.986 9.80131 16.2756 9.18063C16.5651 8.55995 16.6972 7.87747 16.6601 7.19358C16.623 6.50969 16.4179 5.84548 16.063 5.25974C15.708 4.674 15.2142 4.18479 14.6251 3.83541" stroke="#00ADFF" stroke-width="2" stroke-linecap="round" stroke-linejoin="round"/>
</svg>
